<?xml version="1.0" standalone="no"?>
<!DOCTYPE svg PUBLIC "-//W3C//DTD SVG 20010904//EN"
 "http://www.w3.org/TR/2001/REC-SVG-20010904/DTD/svg10.dtd">
<svg version="1.0" xmlns="http://www.w3.org/2000/svg"
 width="1920.000000pt" height="1080.000000pt" viewBox="0 0 1920.000000 1080.000000"
 preserveAspectRatio="xMidYMid meet">

<g transform="translate(0.000000,1080.000000) scale(0.100000,-0.100000)"
fill="#000000" stroke="none">
<path d="M0 10699 l0 -102 64 5 c122 10 219 77 233 162 l6 36 -152 0 -151 0 0
-101z"/>
<path d="M1266 10776 c8 -34 -27 -108 -63 -134 -17 -12 -41 -47 -57 -82 l-28
-62 31 -30 c35 -34 41 -80 15 -109 -15 -16 -14 -19 16 -34 17 -9 65 -40 105
-69 84 -60 137 -78 301 -102 120 -17 303 -23 347 -11 17 5 27 14 27 27 0 21
-35 50 -61 50 -48 0 -212 64 -266 104 -124 91 -181 210 -138 286 14 24 14 22
15 -39 0 -82 24 -133 91 -196 64 -59 144 -97 294 -136 l120 -31 325 -4 c337
-3 410 3 466 37 32 19 54 56 54 90 0 33 -50 75 -97 82 -29 5 -44 13 -48 27 -8
26 -45 21 -270 -32 -93 -22 -203 -43 -244 -47 l-75 -7 -38 34 c-39 35 -118
170 -118 202 0 34 12 51 50 70 87 44 155 33 212 -33 l27 -32 113 -3 c62 -1
128 -3 146 -3 18 0 44 9 58 20 15 12 32 21 39 21 7 0 19 7 26 16 8 9 45 40 84
69 127 94 201 85 -684 85 l-781 0 6 -24z"/>
<path d="M8627 10760 c-3 -23 -21 -75 -41 -117 -31 -65 -36 -85 -36 -147 0
-80 4 -87 75 -125 22 -12 58 -33 80 -47 101 -61 297 -104 575 -124 85 -7 183
-18 218 -26 35 -8 74 -11 87 -8 19 5 28 -2 53 -38 129 -189 605 -1099 753
-1439 58 -134 67 -163 59 -185 -6 -14 -10 -49 -10 -77 0 -50 9 -79 79 -262 17
-44 49 -132 72 -195 22 -63 60 -162 84 -220 24 -58 46 -122 50 -144 11 -54 36
-76 88 -76 l42 0 58 -178 c32 -97 71 -206 87 -242 52 -114 36 -146 -81 -175
-38 -10 -85 -28 -105 -41 -41 -28 -100 -43 -166 -44 -55 0 -57 -5 -27 -68 30
-60 222 -233 395 -355 150 -105 242 -182 209 -173 -22 6 -441 98 -775 170
-390 85 -405 87 -661 93 -255 6 -285 2 -348 -45 -19 -14 -52 -27 -77 -30 -42
-4 -45 -2 -93 47 -47 48 -52 51 -101 51 l-52 0 4 -37 3 -38 -55 1 c-30 0 -87
4 -127 9 -99 11 -122 0 -171 -83 -55 -93 -65 -132 -60 -217 4 -52 11 -83 27
-109 13 -21 23 -53 23 -74 1 -77 -12 -234 -21 -250 -31 -61 -19 -153 30 -214
25 -32 29 -45 29 -102 l0 -66 -32 0 c-18 0 -51 6 -73 14 -26 9 -106 15 -228
19 l-188 4 -30 29 c-40 38 -40 79 1 102 76 44 30 101 -115 141 -22 6 -58 27
-80 47 l-39 35 14 41 c13 37 20 43 53 50 106 22 237 136 237 206 0 11 -8 30
-18 42 -16 19 -32 24 -105 30 -48 4 -90 10 -93 13 -4 4 -1 26 6 50 6 24 13
109 13 188 2 138 1 146 -26 203 -15 33 -25 61 -22 64 2 3 18 -1 34 -8 22 -9
38 -9 63 -1 23 8 59 8 118 1 128 -15 477 -13 462 2 -21 21 -15 82 11 106 23
21 109 62 132 62 19 0 26 25 12 44 -7 9 -39 23 -72 31 -175 46 -269 132 -251
230 7 36 46 82 87 102 13 7 63 30 110 51 107 49 141 88 141 160 0 55 -17 95
-59 134 -22 20 -58 34 -160 59 -175 42 -195 61 -153 144 11 22 20 42 20 46 0
18 -74 50 -180 79 -130 36 -162 50 -205 90 -27 24 -45 29 -185 49 -156 21
-373 28 -398 12 -8 -5 -14 -29 -15 -57 l-2 -49 37 3 c40 3 58 -15 58 -60 0
-17 10 -27 40 -40 34 -14 40 -21 40 -47 0 -17 5 -31 11 -31 5 0 17 -17 26 -37
18 -43 12 -127 -12 -174 -17 -32 -95 -80 -170 -105 -29 -10 -69 -35 -97 -60
-26 -24 -52 -44 -58 -44 -18 0 -11 -28 12 -44 12 -9 35 -16 50 -16 27 0 27 0
12 -35 -7 -19 -14 -54 -14 -77 -1 -41 -3 -37 -45 67 -24 61 -44 119 -45 129 0
11 23 43 51 73 100 105 112 162 95 437 -9 131 -11 141 -37 170 -15 18 -56 84
-91 149 -35 64 -92 159 -128 209 -100 143 -327 361 -513 493 -40 28 -149 106
-244 173 -196 140 -312 210 -504 306 -113 56 -146 68 -200 73 -36 3 -129 26
-214 53 -187 61 -292 82 -570 115 -177 21 -238 32 -310 58 l-90 32 -320 2
c-348 2 -370 -1 -520 -57 -90 -34 -172 -39 -219 -15 -38 20 -52 19 -74 -5 -23
-25 -177 -90 -214 -90 -16 0 -28 -5 -28 -11 0 -6 16 -58 35 -116 19 -58 35
-126 35 -150 0 -36 4 -46 20 -50 26 -7 25 -17 -2 -30 -13 -6 -52 -34 -88 -63
-36 -29 -83 -61 -105 -72 -22 -12 -71 -42 -110 -68 -80 -54 -148 -90 -168 -90
-8 0 -20 -6 -26 -14 -9 -11 -20 -12 -44 -5 -36 9 -315 31 -392 30 -51 -1 -105
15 -105 30 0 4 -11 18 -24 31 -19 18 -25 36 -28 86 -5 76 -31 108 -126 155
-35 18 -71 44 -79 58 -15 25 -15 28 6 58 14 19 53 47 101 71 94 47 120 77 120
136 0 34 -6 48 -31 73 -17 17 -43 34 -57 39 -36 10 -255 9 -432 -2 -123 -7
-158 -6 -234 9 -66 13 -110 16 -175 11 -234 -18 -241 -19 -256 -6 -24 20 -19
87 9 113 16 15 25 36 28 66 4 42 2 44 -29 58 -18 7 -68 16 -110 19 -43 3 -94
10 -113 15 -19 4 -108 17 -198 29 -89 11 -189 29 -222 40 -32 11 -66 17 -74
14 -17 -7 -111 57 -126 86 -14 26 -12 62 5 103 8 20 15 57 15 82 0 40 -3 47
-27 57 -16 6 -88 12 -161 12 l-132 1 2 -500 3 -500 115 -12 c346 -36 558 -46
1048 -50 484 -3 504 -4 543 -24 34 -17 51 -19 107 -14 56 5 72 3 94 -13 40
-26 118 -130 118 -156 0 -12 -18 -44 -40 -71 -21 -28 -47 -60 -57 -73 -14 -18
-35 -26 -103 -36 -47 -7 -95 -18 -108 -25 -30 -16 -98 4 -119 36 -20 30 -40
16 -49 -33 -3 -19 -14 -40 -23 -47 -9 -7 -21 -21 -27 -32 -6 -11 -31 -27 -55
-35 -37 -13 -49 -24 -73 -69 -28 -52 -29 -53 -65 -47 -20 3 -91 24 -158 46
-67 22 -135 40 -150 40 -17 0 -60 20 -103 47 -41 25 -91 53 -110 61 -53 22
-148 31 -214 20 -51 -9 -63 -8 -101 11 -31 16 -59 21 -105 20 -70 -2 -74 1
-112 76 -41 80 -50 85 -160 85 l-98 0 0 -2128 0 -2128 47 -12 c64 -16 467 -99
521 -107 33 -5 42 -11 38 -23 -30 -108 -41 -132 -55 -127 -48 15 -503 31 -535
19 -15 -6 -16 -215 -16 -2270 l0 -2264 2389 0 2389 0 22 60 c44 118 165 286
297 411 50 48 68 59 116 69 75 15 365 -1 420 -23 44 -19 87 -62 87 -89 0 -16
-6 -13 -34 16 -27 30 -40 36 -73 36 -45 0 -104 -35 -145 -85 -103 -126 -258
-359 -258 -387 0 -4 15 -8 33 -8 30 0 36 5 52 40 37 82 122 139 280 189 39 12
140 55 225 95 85 40 209 91 275 113 66 23 182 67 258 98 177 73 240 84 370 62
185 -32 520 -156 892 -333 189 -89 215 -105 271 -160 34 -34 65 -71 69 -83 l6
-21 2974 0 c2375 0 2974 3 2970 13 -2 6 -16 68 -30 137 -14 69 -41 179 -59
245 -19 66 -46 172 -60 235 -78 343 -123 534 -163 700 -25 102 -47 198 -50
213 -2 15 -13 47 -23 70 -20 42 -26 77 -13 77 29 0 121 -40 159 -69 56 -43 83
-92 152 -281 27 -74 115 -298 195 -497 80 -200 157 -393 170 -430 14 -38 53
-146 88 -240 l63 -173 177 0 178 0 -24 42 c-13 24 -37 77 -53 118 -17 41 -44
102 -60 135 -110 222 -407 909 -446 1034 -24 74 -25 86 -12 99 13 13 21 13 61
2 106 -30 157 -93 253 -315 33 -77 113 -257 177 -400 65 -143 128 -285 140
-315 13 -30 60 -126 104 -212 45 -87 81 -164 81 -173 0 -13 233 -15 2155 -15
l2155 0 0 1605 0 1605 -557 0 c-824 -1 -2415 -18 -2668 -29 -121 -6 -391 -15
-600 -21 l-380 -11 -97 45 c-109 50 -121 69 -58 86 65 17 53 34 -55 79 -44 18
-110 50 -147 72 -36 21 -69 39 -72 39 -3 0 -6 -8 -6 -18 0 -10 -11 -29 -24
-41 -29 -27 -36 -26 -160 36 -57 28 -121 51 -180 64 -169 35 -257 61 -266 79
-15 28 14 57 69 70 63 15 95 8 155 -35 71 -51 126 -65 233 -62 88 2 93 1 120
-25 16 -16 32 -28 36 -28 3 0 3 22 0 49 -5 46 -4 50 34 88 26 26 68 52 119 72
150 62 184 97 184 186 0 99 -64 160 -194 185 -186 35 -212 54 -182 133 9 23
16 50 16 60 0 25 -60 51 -210 92 -74 20 -138 39 -142 43 -4 4 8 30 28 57 19
28 60 93 89 145 74 132 116 187 172 229 61 46 82 89 83 167 0 71 -12 113 -51
172 -32 47 -35 77 -19 176 18 117 42 375 38 422 -4 62 11 72 85 55 91 -22 191
15 321 119 46 37 61 57 85 115 59 143 101 306 101 396 0 35 3 39 24 39 35 0
40 16 17 49 -24 34 -28 98 -7 126 15 21 52 22 117 4 53 -14 594 -13 799 2 166
12 300 29 300 40 0 4 -16 17 -35 29 -36 22 -43 34 -25 45 6 3 10 22 10 41 0
29 3 34 23 34 13 0 39 16 61 39 31 32 36 42 28 57 -20 37 -58 61 -117 74 -110
23 -165 64 -165 123 0 30 30 96 52 114 15 13 343 163 402 184 21 8 41 20 44
27 4 11 6 11 13 0 5 -8 9 7 9 40 l0 52 -138 68 c-75 38 -153 74 -173 81 -22 7
-69 46 -129 107 -110 112 -149 137 -245 159 -38 8 -97 25 -129 36 -79 27 -134
37 -301 55 -232 24 -325 29 -325 15 0 -19 19 -51 69 -115 l46 -59 3 -92 c3
-78 0 -100 -18 -144 -49 -112 -211 -214 -474 -298 -57 -18 -91 -36 -121 -64
-51 -47 -78 -52 -69 -11 15 67 38 123 84 206 99 177 216 479 251 650 17 82 17
93 3 114 -20 30 -57 25 -124 -18 -26 -16 -73 -39 -106 -50 -32 -11 -99 -44
-149 -72 -103 -58 -182 -88 -235 -88 -31 0 -39 4 -44 23 -8 32 -9 579 -1 599
4 10 15 20 26 23 62 20 34 107 -38 121 -39 7 -45 16 -67 106 -9 37 -35 116
-57 174 -44 117 -45 150 -4 160 14 3 215 4 447 1 440 -6 494 -10 660 -56 109
-29 184 -65 204 -97 12 -17 18 -46 18 -78 0 -69 -29 -111 -87 -127 -23 -6 -76
-22 -117 -35 -98 -31 -110 -31 -111 4 l-1 27 -7 -25 c-11 -40 -63 -60 -155
-60 -68 0 -77 -2 -72 -16 10 -26 -20 -62 -77 -90 -28 -14 -60 -33 -69 -42 -20
-17 -23 -53 -8 -82 13 -25 130 -67 220 -79 42 -6 116 -20 165 -31 183 -43 305
-52 795 -55 404 -3 471 -6 510 -21 32 -11 99 -19 225 -24 99 -5 181 -9 183 -9
1 -1 2 -10 2 -20 0 -35 47 -61 104 -59 45 1 47 2 11 5 -78 7 -85 11 -85 46 0
64 46 95 116 75 18 -5 39 -16 46 -26 14 -18 25 -20 183 -25 97 -4 123 -11 176
-49 25 -17 62 -2 87 37 12 19 28 35 35 35 6 0 19 13 28 29 9 16 30 35 45 43
25 12 29 19 28 50 -1 21 -8 48 -17 61 -20 32 -152 87 -232 98 -121 17 -223 28
-348 38 -90 8 -179 24 -305 55 -302 76 -427 95 -724 106 -117 5 -226 11 -243
14 -38 6 -95 67 -95 101 0 14 9 30 20 37 26 17 25 50 -2 75 -13 11 -56 38 -97
59 -85 45 -106 69 -97 118 7 39 33 65 70 72 75 13 150 62 177 115 25 49 24 70
-3 104 -43 54 -63 57 -438 63 -475 7 -608 6 -623 -5 -60 -48 -167 5 -167 82 0
34 16 53 68 79 59 30 19 79 -78 96 -108 18 -316 43 -385 45 -46 2 -95 12 -145
30 -41 15 -94 31 -117 36 -75 15 -132 56 -147 105 -8 26 8 72 36 101 14 15 22
37 22 65 1 39 -2 43 -24 46 -14 2 -32 10 -42 19 -13 12 -47 14 -190 11 -168
-3 -175 -2 -223 22 -47 24 -51 28 -60 76 -5 28 -16 59 -23 67 -21 24 -5 40 33
33 22 -4 50 0 86 14 43 17 65 20 111 15 39 -5 73 -2 111 9 46 13 62 25 116 87
48 55 61 78 59 98 l-3 26 -1407 3 -1408 2 0 -28 c0 -16 -9 -62 -20 -103 -25
-94 -25 -150 -1 -197 29 -57 60 -80 131 -97 36 -8 81 -20 101 -25 20 -6 61
-10 91 -10 30 0 92 -11 139 -25 79 -23 99 -25 319 -25 206 -1 242 -3 290 -20
52 -18 67 -19 260 -9 113 6 329 9 480 7 333 -5 340 -7 443 -110 l67 -68 -2
-105 -3 -105 -123 0 c-117 0 -169 -10 -157 -30 3 -6 16 -5 31 0 14 6 81 10
149 10 139 0 155 -7 155 -65 0 -40 -17 -48 -75 -39 -30 4 -52 1 -73 -10 -20
-10 -57 -16 -102 -16 -67 0 -74 2 -100 30 l-29 31 -15 -23 c-9 -12 -16 -33
-16 -47 0 -15 -18 -43 -50 -77 -34 -36 -50 -61 -50 -79 0 -56 85 -130 176
-154 23 -6 108 -16 189 -21 122 -8 163 -15 238 -41 83 -29 101 -31 236 -33 80
0 170 3 198 8 45 8 53 6 59 -8 8 -21 -35 -133 -79 -207 l-32 -54 -275 0 c-253
-1 -281 -2 -354 -23 -90 -25 -118 -27 -149 -10 -22 11 -144 121 -342 307 -180
169 -360 295 -412 289 -28 -3 -32 -11 -48 -109 -9 -56 -26 -73 -74 -71 -88 4
-137 57 -128 139 6 52 26 77 84 103 49 21 83 69 83 116 0 61 -60 84 -220 84
-58 0 -122 5 -142 10 -33 9 -39 16 -49 53 -11 42 -47 90 -84 110 -20 10 -158
28 -225 29 -19 0 -126 5 -237 11 -273 14 -283 9 -261 -144 15 -98 20 -102 139
-103 94 -1 119 -12 119 -52 0 -36 -40 -55 -132 -65 -46 -5 -91 -11 -100 -13
-13 -3 -32 31 -88 153 -39 87 -86 182 -104 213 -19 30 -52 94 -74 141 -22 47
-89 173 -150 279 -60 106 -121 217 -136 246 l-26 52 -879 0 -878 0 -6 -40z
m3362 -305 c22 -19 36 -24 55 -19 15 3 32 2 39 -4 6 -5 31 -12 55 -15 108 -13
125 -84 32 -132 -50 -26 -121 -25 -158 2 -16 12 -56 29 -88 37 -70 18 -84 34
-84 97 0 53 4 56 77 58 31 1 49 -5 72 -24z m1752 -595 c24 -13 26 -65 3 -74
-9 -3 -33 -6 -54 -6 -33 0 -39 4 -45 27 -11 47 47 79 96 53z m-8508 -346 c149
-29 180 -50 66 -47 -319 9 -405 7 -444 -8 l-40 -16 72 -7 c40 -4 92 -13 115
-20 l43 -13 -35 -6 c-19 -3 -120 -8 -225 -10 -208 -5 -283 -20 -360 -73 -21
-14 -50 -26 -64 -27 -21 -2 -27 4 -36 35 -16 58 -24 62 -100 49 -95 -17 -215
-56 -322 -106 -121 -57 -351 -182 -386 -211 -25 -21 -49 -30 -130 -48 -15 -4
-52 -29 -82 -56 -30 -27 -72 -58 -93 -69 -22 -11 -46 -31 -56 -45 -9 -14 -27
-28 -41 -32 -29 -7 -32 -31 -10 -75 9 -16 13 -35 9 -41 -34 -54 -130 -148
-177 -173 l-38 -20 -18 24 -18 24 -19 -32 c-10 -17 -48 -51 -84 -76 -44 -29
-81 -64 -109 -105 -26 -36 -57 -68 -80 -80 -34 -17 -46 -36 -131 -206 -51
-104 -101 -207 -111 -231 -21 -49 -31 -53 -47 -18 -6 14 -16 25 -21 25 -18 0
-60 -61 -80 -117 -12 -32 -28 -69 -37 -83 -28 -46 -45 -91 -70 -188 -14 -54
-36 -117 -50 -141 -22 -40 -24 -54 -24 -178 0 -117 -2 -134 -14 -123 -42 34
-41 165 5 384 41 198 267 682 393 843 23 29 58 79 79 111 87 136 274 323 473
472 257 194 825 522 1067 616 102 40 170 56 322 79 61 9 135 22 165 29 38 9
141 14 330 15 259 1 283 0 413 -25z m7172 -46 c95 -64 230 -182 282 -244 65
-80 372 -377 498 -483 66 -55 145 -125 176 -156 30 -30 61 -55 67 -55 14 0
119 117 191 214 88 117 177 265 279 464 51 100 95 182 97 182 49 0 167 -260
219 -480 47 -206 69 -412 70 -666 1 -221 5 -239 55 -228 116 26 300 93 484
176 133 60 140 43 71 -173 -19 -59 -55 -153 -80 -210 -63 -146 -212 -417 -236
-430 -14 -8 -28 -6 -56 8 -29 14 -41 28 -55 68 -28 76 -37 78 -35 5 3 -60 2
-64 -22 -71 -44 -12 -205 -9 -327 6 -156 20 -315 59 -617 151 -275 84 -291 85
-351 33 -40 -35 -59 -87 -51 -134 8 -39 66 -96 123 -120 167 -71 490 -136
1023 -205 278 -36 310 -43 310 -70 0 -24 -22 -25 -185 -10 -121 12 -627 84
-697 99 -57 13 -397 51 -514 58 -73 4 -97 2 -125 -12 -43 -22 -77 -53 -94 -86
-22 -41 -46 -157 -51 -243 -6 -108 -15 -119 -111 -139 -43 -9 -154 -32 -248
-52 -93 -19 -180 -33 -193 -30 l-24 6 5 412 c4 395 5 415 27 482 44 138 115
249 221 351 108 102 233 174 369 213 41 12 95 28 120 36 25 8 79 19 120 25 65
9 129 34 118 46 -2 2 -62 -5 -132 -16 -159 -25 -273 -62 -443 -145 -107 -52
-144 -76 -189 -122 -110 -111 -202 -281 -224 -414 -5 -35 -15 -233 -20 -439
-6 -206 -13 -389 -16 -407 -7 -46 -39 -66 -154 -97 -56 -15 -121 -36 -145 -46
-58 -25 -131 -93 -145 -135 -6 -19 -39 -62 -73 -97 -52 -53 -67 -76 -86 -133
-58 -175 -24 -400 78 -508 59 -64 184 -122 291 -135 l55 -7 32 -110 c17 -61
46 -171 63 -245 53 -225 105 -334 230 -480 81 -94 82 -88 -23 -133 -180 -76
-238 -97 -282 -104 l-45 -6 0 73 c0 82 34 264 56 297 8 12 14 25 14 28 0 3
-58 5 -129 5 -71 0 -165 5 -208 10 -82 12 -210 47 -219 62 -7 11 22 52 111
158 107 127 185 244 185 278 0 5 -37 12 -82 14 -100 7 -169 29 -353 115 -77
36 -180 81 -230 100 -111 43 -205 92 -205 107 1 6 26 31 56 56 30 25 108 103
172 173 74 81 138 141 174 163 82 50 127 114 81 114 -22 0 -94 42 -159 93 -27
20 -89 64 -139 96 -49 33 -128 90 -175 128 -101 81 -290 270 -290 290 0 17 52
40 112 49 23 3 52 12 63 19 11 6 45 20 75 30 113 37 190 88 365 245 89 80 175
138 245 167 46 19 55 26 52 45 -10 85 -216 511 -372 772 -95 159 -96 172 -14
170 77 -2 330 -22 429 -33 50 -6 135 -15 190 -20 55 -5 158 -17 228 -26 94
-13 132 -14 140 -6 6 6 11 52 12 108 1 86 22 319 55 620 5 50 10 194 10 320 0
125 3 238 6 251 9 33 34 27 119 -30z m-6474 -108 c35 -10 87 -34 114 -52 28
-18 102 -60 165 -93 157 -83 212 -121 690 -474 77 -57 337 -322 407 -414 83
-111 150 -237 184 -348 20 -63 23 -96 24 -219 0 -136 -2 -148 -25 -194 -27
-53 -91 -112 -109 -102 -6 4 -11 32 -11 62 0 47 2 54 20 54 11 0 29 9 40 20
17 17 20 33 20 124 0 202 -61 392 -190 591 -70 107 -242 277 -345 340 -151 93
-420 276 -460 313 -23 20 -70 52 -105 71 -36 18 -76 44 -90 57 -42 38 -159 94
-219 106 -31 5 -80 25 -111 44 -31 19 -60 34 -66 34 -12 0 -104 94 -104 106 0
11 102 -4 171 -26z m5291 -129 c28 -16 52 -19 148 -19 101 1 123 -2 180 -25
63 -25 72 -26 332 -29 l268 -3 27 -28 28 -28 -1 -192 c-1 -106 -9 -260 -18
-343 -9 -83 -16 -186 -16 -229 l0 -78 -91 8 c-50 3 -112 13 -138 21 -46 14
-67 17 -286 29 -66 4 -127 11 -135 15 -9 5 -21 25 -29 47 -57 163 -215 576
-267 700 -35 84 -64 157 -64 163 0 16 25 12 62 -9z m-5795 -451 c259 -44 480
-116 771 -250 282 -129 444 -239 689 -468 207 -193 276 -286 393 -527 104
-216 187 -474 198 -617 l5 -68 -34 0 c-19 0 -66 9 -104 20 -38 11 -81 20 -94
20 -48 0 -484 112 -591 152 -30 11 -109 38 -175 60 -66 22 -176 60 -245 85
-69 25 -161 56 -205 70 -44 14 -132 46 -195 71 -63 25 -182 62 -265 82 -82 20
-195 52 -250 69 -55 18 -172 50 -260 71 -88 20 -223 55 -300 76 -121 33 -155
38 -250 38 l-110 1 -61 -42 c-33 -23 -67 -50 -76 -60 -22 -24 -53 -98 -62
-146 -11 -60 -78 -118 -173 -152 -43 -15 -107 -41 -143 -57 -103 -48 -147 -63
-304 -108 -82 -23 -181 -55 -220 -72 -274 -113 -520 -197 -534 -183 -13 12 -2
119 18 185 13 41 26 93 31 115 14 77 167 486 207 553 114 191 258 348 448 487
218 159 280 201 469 315 273 166 363 201 655 260 177 35 184 36 442 38 167 2
228 -2 325 -18z m8028 -1270 c394 -134 552 -163 858 -158 l208 3 40 -42 c42
-45 49 -80 27 -127 -15 -35 -36 -40 -173 -37 -204 3 -525 41 -750 87 -209 44
-467 125 -510 162 -62 53 -82 114 -47 145 56 51 117 46 347 -33z m-8683 -46
c100 -31 287 -87 413 -124 397 -117 435 -129 519 -166 150 -68 241 -139 285
-221 18 -35 -6 -222 -59 -446 -31 -132 -117 -262 -300 -458 -68 -73 -109 -109
-123 -109 -12 0 -44 -12 -72 -25 -33 -17 -67 -25 -100 -25 -76 1 -232 26 -310
50 -81 26 -211 92 -261 134 -57 46 -171 195 -213 276 -67 129 -136 388 -147
555 -7 99 11 427 26 478 15 49 107 135 147 137 6 0 94 -25 195 -56z m3700 36
c65 0 122 -71 103 -129 -11 -34 -53 -53 -129 -56 -47 -2 -94 -12 -139 -29 -92
-36 -120 -34 -151 7 -26 34 -34 88 -18 114 22 35 227 107 277 97 11 -2 37 -4
57 -4z m7343 -30 c195 -36 180 -31 183 -68 2 -19 -4 -44 -13 -59 -27 -41 -72
-53 -199 -53 l-115 0 -35 34 c-24 22 -36 42 -36 61 0 46 51 102 95 104 6 1 60
-8 120 -19z m-7635 -318 c74 -55 111 -67 216 -67 116 -1 160 -20 188 -79 33
-70 19 -81 -134 -106 -69 -11 -158 -32 -198 -46 -96 -33 -159 -20 -218 43 -27
29 -30 54 -12 82 18 30 -5 51 -58 51 -57 0 -69 21 -45 76 16 35 35 51 81 68
32 12 154 -3 180 -22z m7395 -66 c28 -13 76 -26 107 -28 67 -5 98 -27 98 -69
0 -34 -2 -36 -76 -48 -32 -5 -77 -18 -99 -29 -101 -48 -224 -53 -266 -11 -23
23 -25 92 -5 159 11 37 19 46 42 52 50 12 146 -1 199 -26z m-2341 -67 c16 -8
41 -8 78 -2 54 9 273 -12 383 -38 149 -35 216 -101 223 -219 6 -80 -14 -222
-38 -275 -11 -25 -20 -78 -24 -137 -4 -54 -11 -110 -16 -124 -17 -44 -96 -113
-166 -146 -64 -30 -69 -31 -166 -25 -77 5 -112 12 -156 32 -71 32 -170 96
-177 113 -2 7 -31 47 -64 90 -100 130 -145 279 -139 466 l3 100 31 8 c36 9
127 85 118 99 -10 18 7 48 34 58 36 13 47 13 76 0z m-9070 -38 c3 -5 13 -58
22 -117 8 -60 24 -138 34 -174 10 -36 26 -100 34 -143 33 -171 180 -415 369
-613 97 -103 164 -145 309 -193 162 -53 238 -65 368 -58 255 14 467 124 632
328 123 153 136 172 148 219 6 25 19 53 27 63 21 22 89 23 160 0 l53 -17 0
-113 0 -114 60 -56 c73 -67 163 -199 190 -278 29 -86 26 -185 -6 -185 -8 0
-22 -17 -31 -37 -16 -32 -26 -40 -78 -55 -100 -31 -184 -26 -295 18 -85 32
-238 69 -249 59 -5 -5 99 -134 144 -179 70 -71 207 -113 311 -96 70 11 114 41
177 119 27 32 60 65 74 72 23 12 27 11 44 -11 44 -55 137 -144 192 -180 109
-73 357 -138 473 -123 27 4 65 7 84 7 l35 1 -2 -60 c-1 -43 -12 -90 -41 -165
-22 -58 -44 -121 -50 -140 -18 -63 -175 -327 -292 -492 -134 -190 -216 -275
-398 -418 -73 -58 -152 -120 -175 -138 -60 -47 -154 -93 -297 -145 -116 -43
-141 -48 -345 -71 -339 -40 -453 -48 -592 -44 -136 5 -500 57 -568 82 -22 8
-53 15 -68 16 -44 0 -96 27 -109 54 -10 23 -12 24 -23 9 -12 -16 -17 -16 -76
1 -101 27 -263 100 -397 176 -195 111 -459 278 -465 294 -3 8 -24 24 -46 36
-22 11 -57 38 -78 59 -49 52 -73 75 -136 136 -152 148 -418 552 -448 683 -6
26 -12 108 -14 182 -2 102 -6 144 -19 167 -14 27 -16 70 -16 281 0 241 1 250
20 255 26 7 26 44 0 94 -26 52 -45 288 -33 432 l8 104 130 54 c72 30 177 67
234 83 57 16 111 36 121 45 9 8 98 40 196 70 200 60 616 199 642 215 21 12 49
13 56 1z m10001 -271 c0 -184 1 -197 23 -235 48 -86 60 -105 71 -119 6 -7 30
-58 53 -112 l42 -99 1 -130 c0 -200 -19 -255 -96 -275 -48 -13 -76 -2 -134 51
-28 26 -45 36 -45 27 0 -8 24 -38 53 -65 39 -37 64 -52 93 -57 77 -13 114 17
139 114 9 36 23 75 31 88 20 30 52 28 64 -4 15 -38 12 -223 -5 -359 -26 -215
-30 -323 -12 -343 70 -77 76 -238 10 -273 -45 -24 -112 -109 -175 -221 -33
-60 -78 -131 -98 -157 -52 -65 -187 -166 -285 -212 -136 -64 -187 -73 -385
-73 -291 0 -487 40 -685 140 -192 97 -392 270 -499 431 -85 126 -167 363 -207
592 -10 63 -24 120 -30 128 -8 9 -36 13 -89 13 -65 0 -86 4 -137 30 -34 17
-82 53 -110 83 -44 46 -55 67 -83 155 -29 91 -32 112 -28 190 7 144 72 253
184 308 47 23 60 25 116 19 77 -9 142 -42 208 -107 27 -26 53 -48 58 -48 24 0
40 40 47 114 6 65 11 83 31 101 34 31 125 64 214 77 41 5 111 19 155 29 44 10
104 20 134 21 45 1 57 -2 73 -21 10 -13 18 -33 18 -45 0 -11 13 -51 29 -88 90
-212 283 -388 472 -433 192 -45 414 7 520 122 114 124 179 374 179 690 l0 131
28 10 c58 22 57 24 57 -188z m450 163 c130 -31 178 -50 224 -89 47 -40 58 -73
66 -205 9 -132 1 -158 -62 -206 -31 -24 -45 -28 -92 -26 -31 0 -75 4 -98 8
-38 6 -51 2 -136 -44 -52 -28 -102 -51 -110 -51 -16 0 -56 76 -92 173 l-18 47
29 42 c21 30 25 43 16 46 -7 2 -25 14 -40 27 -25 22 -27 30 -30 114 -4 88 -3
92 27 133 17 23 41 48 54 55 29 18 121 9 262 -24z m-7423 -193 c37 -11 70 -25
73 -29 14 -23 98 -60 135 -59 37 0 163 -32 200 -51 8 -5 19 -22 23 -38 8 -27
12 -30 52 -29 54 1 91 -24 124 -84 29 -52 40 -165 22 -235 -9 -37 -9 -50 4
-75 18 -35 19 -83 3 -113 -6 -12 -33 -82 -59 -156 -72 -199 -118 -267 -224
-328 -27 -16 -54 -39 -60 -51 -9 -20 -17 -22 -95 -22 -47 0 -103 -5 -125 -12
l-40 -11 29 -12 c28 -12 28 -12 5 -18 -45 -12 -162 12 -234 47 -85 42 -223
171 -283 264 -58 90 -102 203 -123 312 -23 122 -24 171 -4 164 20 -8 20 18 -1
57 -14 29 -14 32 3 44 10 8 47 23 83 34 132 41 228 122 213 180 -3 14 -21 50
-40 81 l-34 55 28 20 c15 11 45 38 67 59 32 32 47 40 87 44 27 2 52 9 55 14 3
5 16 0 28 -11 12 -11 52 -30 88 -41z m-4614 -75 c20 -9 59 -37 85 -63 l49 -47
-7 -90 c-3 -49 1 -196 9 -325 29 -454 29 -452 14 -496 -8 -22 -28 -57 -43 -77
-26 -32 -31 -35 -46 -21 -9 8 -53 21 -98 29 -117 20 -202 64 -281 144 -116
118 -170 262 -170 456 0 219 55 337 198 433 103 68 211 89 290 57z m12227
-303 c60 -8 66 -23 36 -103 -33 -86 -65 -117 -136 -130 -94 -17 -132 -49 -80
-69 14 -5 25 -12 25 -15 0 -12 -77 8 -115 30 -47 27 -145 123 -145 142 0 20
71 86 115 108 80 38 187 52 300 37z m-7215 -1282 c6 -24 12 -26 124 -42 350
-50 756 -74 1026 -59 96 5 178 7 183 4 4 -2 7 -29 7 -60 0 -31 11 -110 25
-177 13 -67 40 -210 60 -320 39 -219 38 -232 -19 -220 -105 22 -137 42 -255
157 -128 125 -183 166 -262 197 -80 32 -343 90 -407 90 -31 0 -97 7 -147 15
-49 8 -127 15 -172 15 -76 0 -83 -2 -83 -20 0 -12 14 -29 35 -42 20 -13 49
-46 65 -73 45 -78 53 -131 39 -261 -11 -103 -14 -113 -34 -118 -12 -3 -66 -35
-121 -71 -54 -36 -115 -68 -134 -71 -19 -3 -87 -30 -151 -60 -65 -30 -124 -54
-133 -54 -21 0 -166 -152 -189 -198 -10 -21 -24 -48 -32 -62 -24 -40 -19 -109
13 -171 53 -106 201 -172 472 -209 85 -12 180 -28 210 -36 32 -8 103 -14 175
-14 66 0 161 -7 210 -16 97 -17 175 -15 370 11 61 8 171 15 246 15 103 0 139
3 148 14 9 11 6 15 -17 19 -21 4 -38 20 -62 57 -18 27 -40 54 -49 59 -13 8
-12 11 12 20 16 6 34 11 40 11 7 0 33 16 60 35 84 62 63 96 -96 152 -100 34
-137 68 -137 124 0 61 60 119 175 170 164 74 330 141 359 146 16 3 59 1 95 -5
36 -6 158 -25 271 -43 198 -31 236 -41 224 -60 -3 -5 12 -9 33 -9 64 0 107
-48 71 -78 -18 -14 -121 -32 -186 -32 -66 0 -68 -23 -3 -28 33 -3 42 -7 39
-20 -3 -13 -12 -16 -43 -13 -90 8 -252 4 -286 -8 -82 -27 -109 -100 -65 -174
l26 -45 -49 -20 c-26 -12 -52 -27 -58 -34 -6 -7 -18 -46 -28 -87 -14 -58 -26
-82 -52 -108 -24 -25 -33 -42 -33 -67 0 -19 -8 -44 -18 -56 l-18 -22 -789 11
c-435 7 -1123 14 -1530 17 -881 7 -808 -3 -1083 136 -101 50 -185 95 -187 98
-12 19 25 31 150 45 361 41 668 135 880 268 87 55 287 217 388 316 87 85 124
127 240 279 16 20 53 78 82 127 29 50 63 99 75 110 29 26 120 182 155 265 29
68 74 230 75 266 0 47 59 59 70 14z m-5160 -665 c91 -14 246 -36 345 -50 193
-27 428 -75 468 -97 45 -24 169 -147 165 -165 -4 -23 -122 -102 -188 -125 -72
-26 -156 -26 -310 1 -69 12 -179 28 -245 36 -66 8 -140 19 -165 24 -25 6 -92
15 -150 21 -58 5 -131 15 -164 22 l-58 11 5 66 c17 185 37 271 69 285 7 3 24
3 38 0 14 -2 99 -16 190 -29z m10216 -82 c46 -75 124 -154 198 -205 73 -51
194 -107 249 -116 33 -6 43 -12 45 -30 4 -26 -56 -212 -68 -212 -4 0 -14 7
-21 16 -8 9 -73 59 -146 111 -212 150 -296 239 -328 347 -13 42 -11 71 10 134
8 24 25 11 61 -45z m-126 -130 c107 -128 240 -261 303 -303 32 -22 67 -50 77
-63 10 -13 47 -38 82 -57 146 -76 188 -114 188 -171 0 -12 -18 -74 -40 -138
-22 -64 -44 -135 -50 -159 -11 -43 -48 -79 -72 -69 -15 6 -332 253 -548 427
-80 65 -177 152 -214 194 l-69 77 35 37 c39 40 126 169 170 251 40 73 58 70
138 -26z m1234 45 c22 -32 19 -85 -7 -138 -25 -48 -84 -90 -187 -131 -77 -31
-108 -55 -117 -90 l-8 -30 -50 52 c-28 29 -69 70 -92 92 -35 33 -42 45 -37 66
15 75 28 111 39 111 6 0 19 18 28 40 l15 39 164 4 c89 1 180 4 200 5 28 1 40
-3 52 -20z m-10230 -220 c7 -13 28 -66 46 -120 39 -114 74 -164 223 -317 215
-221 458 -380 698 -457 46 -15 93 -36 104 -46 22 -20 41 23 -145 -338 -97
-188 -133 -276 -147 -354 -12 -70 -30 -78 -96 -42 -154 84 -265 156 -315 206
-118 115 -395 456 -489 600 -117 182 -243 390 -294 488 -45 87 -53 110 -53
156 0 69 17 89 92 106 92 20 205 65 263 104 62 42 93 45 113 14z m10945 4 c64
-32 95 -103 63 -142 -16 -19 -33 -24 -108 -31 -49 -4 -116 -17 -148 -28 -84
-30 -139 -28 -165 5 -41 52 -18 124 51 160 46 24 167 53 223 53 29 1 64 -6 84
-17z m-6251 -8 c20 -9 81 -22 135 -29 102 -13 137 -30 137 -67 0 -64 -67 -97
-195 -98 -109 0 -157 12 -185 47 -37 48 -23 109 33 143 38 24 30 23 75 4z
m5059 -96 c15 -30 51 -71 105 -120 162 -144 185 -177 224 -328 26 -103 51
-290 39 -290 -6 0 -33 41 -60 92 -105 193 -223 342 -300 379 -45 22 -64 82
-64 212 -1 98 1 108 17 105 9 -2 27 -24 39 -50z m-9615 -57 c24 -16 77 -67
118 -112 42 -47 89 -88 109 -96 20 -9 74 -52 122 -97 172 -164 374 -234 644
-224 109 4 130 8 155 26 35 26 78 29 87 5 9 -22 -14 -128 -37 -174 -31 -60
-73 -89 -131 -89 -28 0 -63 6 -78 14 -15 8 -74 27 -131 41 -145 37 -296 118
-449 243 -90 72 -378 343 -385 362 -3 8 -22 39 -41 68 -49 75 -48 77 17 33z
m4374 -201 c15 -6 42 -23 59 -39 23 -20 47 -30 86 -34 63 -8 97 -34 81 -64
-16 -28 -96 -68 -197 -98 -99 -29 -196 -29 -241 0 -22 14 -23 19 -19 106 3 51
10 98 16 105 23 28 163 43 215 24z m-2881 -225 c195 -18 183 -12 240 -131 76
-159 130 -410 139 -644 4 -91 9 -191 13 -222 4 -46 3 -58 -9 -58 -8 0 -72 71
-143 157 -335 405 -404 479 -486 523 -32 17 -59 33 -59 35 0 2 14 26 30 52 38
60 49 97 56 203 7 105 8 109 31 104 10 -2 95 -11 188 -19z m8458 -290 c23 -38
66 -128 94 -200 51 -125 52 -130 32 -133 -102 -17 -208 98 -240 261 -10 51 -9
58 17 116 33 71 27 74 97 -44z m-424 53 c76 -76 111 -145 125 -240 l7 -48 -31
0 c-44 0 -81 22 -128 75 -39 44 -92 156 -92 193 0 46 80 59 119 20z m-7938
-565 c98 -85 359 -392 359 -423 0 -11 22 -90 50 -176 27 -86 66 -222 85 -303
65 -267 87 -344 175 -596 173 -495 179 -521 123 -565 -49 -38 -65 -27 -147 97
-26 39 -62 81 -81 93 -55 34 -130 123 -144 171 -7 24 -56 152 -108 284 -53
132 -127 337 -165 455 -39 118 -99 289 -133 380 -35 91 -69 185 -75 210 -7 24
-22 65 -35 90 -32 63 -38 106 -25 165 12 57 52 165 60 165 3 0 31 -21 61 -47z
m-655 -135 c126 -128 147 -160 175 -255 32 -111 176 -642 236 -868 30 -115 70
-267 89 -337 18 -71 31 -134 28 -142 -10 -25 -52 -46 -92 -46 -29 0 -44 7 -64
28 -34 36 -174 325 -287 592 -50 118 -116 260 -146 315 -30 55 -94 176 -141
269 l-86 169 20 96 c34 169 93 291 140 291 10 0 66 -49 128 -112z"/>
<path d="M3042 4993 c-23 -148 -20 -156 84 -299 98 -136 162 -204 255 -275 43
-32 108 -93 146 -134 79 -88 110 -112 126 -96 7 7 2 22 -17 51 -15 23 -29 53
-31 68 -4 26 -80 204 -123 287 -24 47 -86 121 -112 135 -18 10 -18 9 -4 -25
16 -40 12 -55 -16 -55 -22 0 -17 -8 -174 233 l-122 188 -12 -78z"/>
<path d="M4927 4796 c-47 -17 -51 -21 -44 -40 5 -13 23 -15 114 -10 118 7 265
-6 340 -30 26 -8 85 -24 131 -36 176 -44 365 -145 465 -247 51 -53 67 -63 95
-63 30 0 33 2 26 23 -10 34 -32 54 -103 93 -36 20 -80 48 -97 63 -163 144
-771 306 -927 247z"/>
<path d="M13727 5130 c-177 -20 -373 -62 -552 -118 -82 -25 -90 -30 -93 -55
-3 -21 1 -27 17 -27 11 0 22 4 25 9 10 15 145 68 231 90 44 12 129 30 188 41
116 21 140 18 152 -20 6 -20 7 -20 27 6 40 50 72 56 266 49 99 -4 187 -12 200
-18 28 -13 52 -56 52 -91 0 -21 -31 -57 -59 -68 -5 -2 -23 -54 -39 -116 -17
-62 -27 -110 -23 -107 4 2 25 45 46 95 20 50 49 105 64 122 14 17 33 50 41 72
18 48 39 55 86 30 32 -17 35 -17 51 -2 35 35 -22 62 -202 93 -108 19 -369 27
-478 15z"/>
<path d="M14760 10783 c-1 -10 -11 -42 -24 -72 -18 -41 -32 -59 -61 -73 -59
-31 -89 -134 -46 -158 24 -12 45 -72 36 -101 -5 -14 2 -33 20 -60 29 -45 116
-93 189 -104 22 -4 59 -15 81 -26 64 -30 136 -39 299 -39 165 0 189 6 168 41
-13 21 -13 21 10 14 12 -4 185 -9 383 -10 330 -3 363 -2 402 15 23 10 47 29
54 42 6 12 18 27 25 31 17 10 18 68 2 90 -17 22 -144 87 -170 87 -11 0 -61
-14 -110 -31 -110 -38 -269 -69 -350 -69 -77 0 -118 24 -163 94 -66 104 -69
154 -11 191 56 37 94 37 177 0 111 -48 174 -65 248 -65 65 0 140 24 155 49 4
6 42 34 84 63 42 28 92 64 110 80 l33 28 -771 0 c-726 0 -770 -1 -770 -17z"/>
<path d="M6962 9875 c-18 -8 -46 -24 -62 -35 -15 -11 -41 -20 -57 -20 -46 0
-73 -25 -67 -60 14 -70 -18 -100 -107 -100 -45 0 -50 -3 -60 -27 -15 -40 -4
-66 56 -134 34 -38 57 -74 61 -95 7 -37 17 -42 144 -64 36 -7 81 -20 100 -30
29 -16 63 -20 210 -23 96 -2 183 -7 192 -11 15 -7 16 -3 11 29 -5 33 -2 40 31
70 20 18 76 49 125 69 48 20 100 49 115 65 26 27 27 30 13 62 -34 80 -83 98
-305 109 -224 12 -294 19 -312 30 -11 7 -15 28 -13 85 2 64 -1 76 -17 85 -22
12 -18 12 -58 -5z"/>
<path d="M17539 9686 c-4 -4 -32 -9 -64 -12 -31 -2 -103 -20 -160 -39 -126
-42 -171 -40 -222 10 l-31 31 -6 -38 c-3 -21 -10 -38 -14 -39 -4 0 -20 -2 -36
-3 -16 -1 -32 -8 -34 -15 -9 -27 -43 -52 -62 -46 -29 9 -75 -20 -94 -59 -22
-46 -20 -103 4 -151 11 -22 20 -50 20 -63 0 -26 22 -73 42 -90 8 -6 45 -14 84
-17 38 -3 110 -16 159 -30 73 -19 120 -24 244 -27 137 -3 155 -1 165 15 16 25
-3 49 -55 69 -36 14 -40 17 -19 19 46 3 72 -2 136 -27 60 -22 78 -24 252 -24
217 0 220 1 247 82 20 63 50 98 127 144 59 36 112 89 123 123 13 41 -49 137
-109 168 -26 14 -82 17 -361 21 -181 2 -333 1 -336 -2z"/>
<path d="M15114 8953 c3 -4 23 -12 42 -19 20 -7 32 -8 27 -3 -5 5 -24 14 -43
19 -18 5 -30 6 -26 3z"/>
<path d="M8710 8824 c-64 -17 -94 -35 -116 -69 -13 -19 -22 -24 -38 -19 -27 9
76 -80 132 -113 35 -21 62 -27 160 -34 133 -11 165 -19 112 -29 l-35 -7 38 -2
c29 -1 47 -10 81 -41 45 -42 70 -50 79 -26 5 11 18 11 81 -4 94 -23 134 -26
166 -13 14 6 61 25 106 42 88 34 119 60 134 110 11 40 -1 75 -35 97 -38 25
-209 44 -405 44 -191 0 -262 12 -337 56 -48 28 -49 28 -123 8z"/>
<path d="M18847 8656 c-21 -8 -39 -16 -41 -18 -16 -25 -25 -62 -17 -76 19 -35
78 -82 135 -108 48 -22 77 -27 167 -32 l109 -5 0 71 c0 68 -1 71 -35 101 -63
55 -112 74 -200 78 -52 2 -93 -2 -118 -11z"/>
<path d="M17694 8138 c7 -27 6 -59 -2 -108 -7 -39 -12 -96 -12 -126 0 -51 -5
-63 -45 -119 -62 -87 -176 -189 -228 -205 -59 -17 -112 -46 -267 -143 -159
-99 -193 -131 -232 -214 -35 -74 -48 -192 -26 -233 19 -36 123 -102 200 -128
88 -28 154 -38 393 -58 347 -28 344 -28 364 -10 13 12 30 15 67 11 41 -4 44
-3 16 4 -48 13 -82 48 -82 86 0 42 27 65 77 65 50 0 198 -35 235 -55 14 -8 33
-12 42 -9 24 9 43 -40 29 -76 l-11 -29 72 -5 c39 -3 179 -8 311 -11 313 -7
435 -30 556 -105 l49 -30 0 325 0 324 -40 11 c-40 11 -80 55 -80 88 0 21 57
70 90 77 l30 7 0 164 0 164 -30 0 c-17 0 -42 7 -56 16 -14 10 -60 20 -107 24
-94 9 -193 42 -199 68 -3 9 -30 29 -60 45 l-55 27 -259 0 c-155 0 -275 4 -298
11 -48 13 -116 57 -116 74 0 8 -8 11 -21 8 -14 -4 -31 5 -58 31 -43 42 -82 55
-186 65 l-71 6 10 -37z"/>
<path d="M16900 6581 c0 -12 7 -50 15 -84 7 -34 18 -84 22 -112 l8 -50 107 -3
c119 -3 136 -13 100 -62 -17 -22 -29 -26 -93 -30 -43 -4 -85 -13 -99 -22 -14
-9 -47 -19 -75 -23 -102 -13 -211 -38 -246 -56 -46 -23 -62 -48 -82 -133 -20
-82 -13 -104 50 -152 48 -37 95 -49 354 -93 348 -60 715 -91 1067 -91 l203 0
15 35 c19 47 18 99 -5 144 -22 42 -47 56 -130 71 -94 17 -133 58 -134 138 -1
48 24 102 47 102 7 0 27 15 44 33 36 37 51 92 33 126 -27 50 -128 68 -239 43
-67 -15 -79 -8 -137 78 -66 99 -85 113 -163 122 -37 5 -155 13 -262 18 -107 5
-241 12 -297 16 -101 7 -103 7 -103 -15z"/>
<path d="M18945 6226 c-12 -8 -42 -17 -68 -21 -56 -9 -73 -22 -87 -73 -14 -50
-13 -76 5 -118 16 -38 62 -64 114 -64 16 0 82 -13 146 -30 64 -16 123 -30 131
-30 12 0 14 29 14 170 l0 170 -89 0 c-49 0 -101 2 -117 6 -18 3 -37 -1 -49
-10z"/>
<path d="M19106 5414 c-9 -8 -16 -21 -16 -29 0 -18 -204 -90 -450 -159 -134
-37 -178 -185 -72 -240 58 -30 335 -78 535 -92 l97 -7 0 272 0 271 -39 0 c-23
0 -46 -7 -55 -16z"/>
<path d="M14677 5329 c-85 -20 -117 -50 -117 -112 0 -62 25 -80 125 -88 67 -5
91 -11 108 -27 12 -11 39 -24 60 -27 21 -4 44 -16 51 -27 12 -17 21 -19 63
-13 40 5 56 2 84 -14 19 -10 61 -22 94 -26 33 -4 79 -16 103 -27 35 -17 48
-18 68 -9 14 6 39 11 56 11 35 0 100 35 165 87 30 24 44 44 49 68 9 49 -13 77
-83 105 -53 21 -79 24 -303 30 -256 7 -307 16 -372 61 -28 20 -85 23 -151 8z"/>
<path d="M6930 196 c8 -8 64 -35 123 -60 137 -58 163 -72 208 -107 35 -27 42
-29 125 -28 l89 1 -100 48 c-222 106 -497 196 -445 146z"/>
</g>
</svg>
